<?xml version="1.0" standalone="no"?>
<!DOCTYPE svg PUBLIC "-//W3C//DTD SVG 20010904//EN"
 "http://www.w3.org/TR/2001/REC-SVG-20010904/DTD/svg10.dtd">
<svg version="1.0" xmlns="http://www.w3.org/2000/svg"
 width="2826.000000pt" height="2826.000000pt" viewBox="0 0 2826.000000 2826.000000"
 preserveAspectRatio="xMidYMid meet">
<metadata>
Created by potrace 1.11, written by Peter Selinger 2001-2013
</metadata>
<g transform="translate(0.000000,2826.000000) scale(0.100000,-0.100000)"
fill="#000000" stroke="none">
<path d="M23990 28196 c-36 -13 -153 -51 -260 -85 -107 -35 -211 -68 -230 -76
-19 -7 -129 -44 -245 -83 -349 -117 -686 -234 -1000 -347 -71 -26 -166 -59
-210 -75 -148 -52 -543 -197 -665 -245 -19 -7 -109 -41 -200 -75 -335 -126
-455 -171 -475 -180 -11 -6 -85 -35 -165 -65 -148 -57 -259 -101 -295 -116
-11 -5 -112 -45 -225 -90 -216 -85 -631 -253 -665 -269 -11 -5 -159 -67 -330
-139 -298 -124 -656 -277 -720 -306 -16 -8 -138 -61 -270 -118 -132 -58 -275
-121 -318 -141 -43 -20 -80 -36 -82 -36 -3 0 -35 -14 -72 -31 -38 -17 -90 -41
-118 -54 -27 -12 -72 -32 -100 -45 -27 -12 -72 -33 -100 -45 -27 -13 -99 -46
-159 -74 -59 -28 -110 -51 -112 -51 -2 0 -47 -21 -101 -46 -54 -26 -125 -59
-158 -75 -453 -210 -937 -444 -1455 -704 -353 -176 -715 -361 -795 -405 -27
-15 -117 -63 -200 -106 -82 -43 -181 -95 -220 -115 -38 -21 -97 -52 -130 -69
-33 -17 -67 -35 -75 -40 -8 -5 -67 -37 -130 -71 -141 -75 -189 -102 -305 -166
-49 -28 -121 -67 -160 -88 -38 -21 -74 -41 -80 -45 -5 -4 -41 -24 -80 -45
-268 -145 -1224 -702 -1476 -860 -9 -5 -34 -20 -55 -32 -22 -13 -70 -43 -109
-67 -38 -25 -101 -64 -140 -87 -38 -23 -184 -115 -322 -203 -139 -89 -261
-166 -270 -171 -90 -52 -900 -594 -1053 -703 -25 -18 -56 -40 -70 -50 -375
-254 -1275 -927 -1586 -1186 -33 -28 -80 -67 -104 -86 -24 -19 -58 -47 -75
-61 -16 -14 -41 -35 -55 -46 -56 -46 -455 -388 -460 -394 -3 -3 -27 -25 -55
-49 -51 -43 -175 -157 -314 -285 -124 -114 -639 -631 -747 -750 -122 -134
-180 -199 -304 -345 -105 -124 -103 -122 -161 -196 -30 -38 -56 -71 -59 -74
-22 -19 -243 -325 -335 -465 -288 -435 -456 -787 -570 -1190 -9 -33 -19 -71
-21 -85 -3 -14 -7 -33 -10 -43 -3 -10 -8 -34 -10 -54 -3 -20 -6 -39 -8 -42
-27 -43 -28 -505 -2 -626 38 -177 61 -245 128 -385 230 -478 723 -839 1468
-1078 83 -26 218 -66 268 -77 9 -3 55 -14 102 -25 101 -24 406 -85 470 -94 25
-3 55 -8 66 -10 37 -7 87 -14 149 -22 33 -3 68 -8 79 -10 10 -2 44 -6 75 -9
31 -4 67 -8 81 -10 14 -2 59 -7 100 -11 41 -3 89 -8 105 -9 17 -2 71 -6 120
-10 50 -4 113 -8 140 -10 354 -27 1271 -27 1750 0 247 14 299 18 460 30 39 3
97 8 130 10 87 7 184 15 230 20 89 9 153 16 205 20 70 6 133 13 179 19 20 3
63 8 96 11 110 10 170 16 204 21 18 2 63 7 100 9 36 3 77 7 91 10 14 2 54 7
90 10 36 3 81 8 100 10 19 3 94 11 165 20 72 8 150 17 175 20 25 3 81 10 125
16 44 5 96 12 115 14 64 8 275 36 300 40 14 2 46 6 72 9 44 6 66 9 156 21 20
3 55 8 77 10 22 3 51 7 65 10 14 3 48 7 76 10 28 3 59 7 70 9 21 4 109 16 229
31 37 4 85 11 145 20 14 3 43 7 65 9 36 5 108 15 215 30 19 3 73 10 120 16 47
6 96 13 110 15 14 2 50 6 80 10 56 7 74 9 145 19 22 3 59 8 83 11 23 3 61 7
85 10 23 3 58 7 77 10 19 2 60 7 90 11 57 7 71 9 155 19 27 3 67 8 88 11 20 2
54 6 75 8 20 3 60 8 87 11 59 7 121 13 191 19 27 3 70 7 95 10 96 12 344 35
434 41 111 7 264 17 295 20 232 22 920 22 1100 0 19 -3 60 -8 90 -11 67 -8 75
-9 120 -17 19 -3 78 -13 130 -22 117 -19 151 -25 170 -30 8 -2 30 -7 47 -10
34 -5 121 -25 233 -51 202 -48 486 -140 663 -215 446 -187 737 -390 1004 -699
146 -168 291 -461 349 -705 29 -125 47 -293 48 -445 0 -82 -11 -267 -18 -306
-2 -10 -9 -53 -16 -94 -71 -441 -278 -956 -598 -1490 -97 -163 -330 -513 -348
-523 -8 -4 -14 -13 -14 -18 0 -15 -362 -489 -417 -547 -7 -7 -29 -34 -50 -60
-21 -26 -40 -49 -43 -52 -3 -3 -32 -36 -65 -75 -356 -416 -866 -939 -1342
-1375 -111 -102 -238 -216 -283 -256 -25 -21 -47 -41 -50 -44 -3 -3 -39 -34
-80 -70 -41 -36 -77 -67 -80 -70 -3 -3 -32 -28 -65 -55 -33 -28 -65 -54 -71
-60 -24 -22 -125 -108 -224 -190 -58 -48 -116 -96 -129 -107 -73 -62 -413
-332 -624 -496 -615 -477 -1220 -910 -1927 -1381 -542 -360 -698 -460 -1259
-805 -362 -223 -930 -560 -1151 -683 -30 -17 -84 -48 -120 -69 -117 -67 -453
-255 -540 -301 -47 -25 -89 -49 -95 -53 -11 -8 -71 -41 -200 -110 -44 -23
-102 -55 -130 -70 -27 -15 -90 -49 -140 -75 -49 -26 -112 -60 -140 -75 -47
-26 -189 -100 -445 -233 -165 -86 -1039 -523 -1205 -602 -77 -37 -180 -87
-230 -110 -49 -23 -157 -75 -239 -114 -81 -39 -150 -71 -151 -71 -2 0 -47 -21
-101 -46 -88 -41 -245 -113 -389 -179 -289 -132 -725 -324 -1055 -465 -118
-50 -233 -99 -255 -109 -22 -10 -186 -78 -365 -151 -179 -73 -338 -138 -355
-146 -16 -7 -61 -24 -100 -39 -38 -15 -83 -33 -100 -40 -48 -20 -251 -100
-372 -146 -62 -23 -111 -44 -109 -46 1 -2 210 65 462 149 252 83 464 153 469
154 6 2 93 32 195 67 102 36 214 75 250 87 36 12 74 25 85 30 11 5 54 20 95
34 41 14 134 46 205 72 72 25 159 57 195 69 241 86 1015 373 1160 430 19 8 96
37 170 66 339 129 1265 498 1405 559 11 4 88 36 170 70 83 34 169 71 192 81
23 10 44 19 46 19 4 0 607 256 672 285 17 8 104 46 195 85 91 40 188 82 215
95 28 12 84 37 125 55 41 18 102 45 135 60 33 15 80 36 105 48 25 11 140 63
255 115 260 117 723 332 910 422 77 37 181 86 230 110 298 141 1265 621 1445
717 47 25 159 84 250 131 237 122 500 260 546 287 17 10 73 40 125 68 130 68
402 217 599 327 91 51 188 105 215 120 159 88 562 321 873 504 89 53 170 101
180 106 123 70 780 475 1027 633 44 28 121 77 170 108 328 209 1166 776 1420
961 68 50 308 224 344 250 192 139 604 455 845 649 54 43 110 88 125 99 21 16
178 146 371 307 26 22 134 115 185 159 71 62 211 185 221 194 6 6 53 48 104
95 189 172 280 260 530 510 299 298 406 412 586 619 16 19 34 39 39 45 52 58
138 162 221 266 54 69 101 127 104 130 3 3 17 21 30 40 13 19 27 37 30 40 10
8 172 238 237 335 49 75 96 150 178 287 66 110 183 344 240 478 31 74 60 144
65 155 38 86 124 410 135 505 3 19 7 51 11 70 3 19 8 116 10 215 5 242 -26
425 -105 622 -208 524 -737 930 -1532 1177 -131 40 -449 122 -554 142 -22 4
-44 8 -50 10 -5 1 -28 5 -50 8 -52 8 -82 14 -103 20 -9 3 -37 7 -62 10 -25 3
-54 8 -66 10 -12 2 -45 7 -74 11 -29 4 -60 8 -69 10 -9 1 -41 6 -71 10 -30 3
-66 8 -80 10 -23 3 -55 7 -197 21 -32 3 -74 7 -93 9 -31 3 -69 6 -260 20 -384
27 -1380 27 -1754 0 -27 -2 -100 -7 -163 -10 -62 -3 -129 -7 -150 -10 -21 -2
-81 -6 -133 -10 -52 -3 -111 -8 -130 -10 -19 -2 -73 -6 -120 -10 -47 -3 -98
-8 -115 -9 -16 -2 -66 -7 -110 -11 -44 -4 -91 -9 -105 -10 -14 -1 -59 -6 -100
-9 -41 -4 -86 -9 -100 -11 -14 -2 -56 -6 -95 -10 -75 -6 -99 -9 -240 -24 -49
-6 -117 -13 -150 -16 -33 -3 -76 -8 -95 -10 -19 -2 -80 -9 -135 -15 -55 -6
-113 -13 -130 -15 -16 -2 -50 -6 -75 -9 -25 -4 -65 -8 -90 -11 -25 -2 -65 -6
-90 -9 -25 -3 -65 -8 -90 -11 -44 -4 -92 -10 -175 -20 -22 -2 -114 -14 -205
-25 -91 -11 -183 -23 -205 -25 -99 -12 -121 -15 -141 -19 -11 -2 -47 -7 -79
-10 -49 -6 -386 -50 -536 -71 -20 -3 -54 -8 -75 -10 -22 -3 -50 -7 -64 -10
-14 -2 -43 -7 -65 -10 -48 -6 -304 -42 -360 -50 -22 -4 -53 -8 -70 -11 -16 -2
-41 -6 -55 -9 -14 -2 -47 -7 -75 -10 -27 -3 -93 -12 -145 -20 -96 -14 -125
-19 -215 -30 -94 -12 -120 -15 -150 -20 -39 -6 -104 -13 -185 -20 -36 -4 -75
-8 -88 -10 -13 -2 -53 -6 -90 -10 -37 -3 -85 -8 -107 -10 -22 -3 -69 -7 -105
-10 -36 -3 -87 -7 -115 -10 -45 -4 -87 -7 -280 -20 -358 -23 -871 -24 -1185 0
-155 11 -217 17 -230 20 -8 2 -46 7 -85 10 -38 3 -92 9 -120 15 -27 5 -66 12
-85 15 -159 26 -612 140 -695 175 -11 4 -74 27 -140 50 -66 24 -148 56 -183
71 -34 16 -65 29 -69 29 -10 0 -222 108 -298 153 -520 300 -860 737 -965 1242
-34 161 -43 246 -44 400 0 104 11 305 19 327 2 7 6 31 9 53 20 146 66 332 131
529 175 526 518 1134 985 1747 129 170 397 500 429 529 9 8 26 28 38 43 30 39
202 231 329 367 23 25 61 65 84 90 70 76 441 449 557 560 115 111 333 316 369
347 18 16 178 161 208 188 16 15 310 271 386 336 79 67 83 71 240 201 69 56
130 107 136 113 6 5 28 24 50 40 21 17 70 56 108 88 39 32 78 64 86 70 355
282 806 625 1090 829 36 26 70 51 75 55 45 36 528 375 756 531 411 280 1074
714 1329 868 36 21 67 41 70 44 8 10 648 397 895 542 336 198 776 449 995 570
25 13 120 66 211 116 91 51 171 92 177 92 7 0 12 3 12 8 0 4 10 12 23 18 20 9
273 143 432 229 33 18 116 62 185 97 69 36 179 94 245 128 255 134 1127 567
1440 715 50 23 144 68 210 100 66 31 170 79 230 107 61 28 148 68 195 90 393
185 1198 537 1835 803 226 95 721 293 920 369 129 50 186 75 170 75 -5 0 -39
-11 -75 -23z"/>
</g>
</svg>
